<svg width="377" height="334" viewBox="0 0 377 334" fill="none" xmlns="http://www.w3.org/2000/svg">
<g clip-path="url(#clip0_2961_47)">
<rect x="17.1543" y="85.7734" width="345.379" height="227.584" fill="#D9D9D9"/>
<rect x="19.4414" y="13.7227" width="344.235" height="68.6183" fill="#161616"/>
<path d="M342.019 0H35.3813C25.9976 0 16.9982 3.72766 10.3629 10.3629C3.72766 16.9982 0 25.9976 0 35.3813L0 294.844C0 304.228 3.72766 313.227 10.3629 319.862C16.9982 326.498 25.9976 330.225 35.3813 330.225H299.871C302.999 330.225 305.999 328.983 308.21 326.771C310.422 324.559 311.665 321.559 311.665 318.432C311.665 315.304 310.422 312.304 308.21 310.092C305.999 307.88 302.999 306.638 299.871 306.638H35.3813C32.2534 306.638 29.2536 305.395 27.0418 303.184C24.8301 300.972 23.5875 297.972 23.5875 294.844V94.3501H353.813V294.844C353.813 297.972 352.57 300.972 350.359 303.184C348.147 305.395 345.147 306.638 342.019 306.638H294.844C291.716 306.638 288.716 307.88 286.505 310.092C284.293 312.304 283.05 315.304 283.05 318.432C283.05 321.559 284.293 324.559 286.505 326.771C288.716 328.983 291.716 330.225 294.844 330.225H342.019C351.403 330.225 360.402 326.498 367.037 319.862C373.673 313.227 377.4 304.228 377.4 294.844V35.3813C377.4 25.9976 373.673 16.9982 367.037 10.3629C360.402 3.72766 351.403 0 342.019 0ZM23.5875 70.7626V35.3813C23.5875 32.2534 24.8301 29.2536 27.0418 27.0418C29.2536 24.8301 32.2534 23.5875 35.3813 23.5875H342.019C345.147 23.5875 348.147 24.8301 350.359 27.0418C352.57 29.2536 353.813 32.2534 353.813 35.3813V70.7626H23.5875Z" fill="black"/>
<path d="M206.514 132.52L168.203 170.831L162.484 179.409L225.956 229.157L256.834 193.704V170.831L248.257 144.528L206.514 132.52Z" fill="white"/>
<path d="M217.952 237.735L163.629 176.551L133.894 196.564L124.745 225.727V250.315L142.471 274.332L184.786 268.042L217.952 237.735Z" fill="#52D390"/>
<path d="M271.348 174.77C271.317 160.579 265.665 146.978 255.631 136.944C245.596 126.909 231.995 121.258 217.804 121.227C210.788 121.211 203.839 122.589 197.36 125.282C190.881 127.975 185.002 131.928 180.064 136.912L121.921 195.056C114.481 202.543 109.42 212.062 107.374 222.416C105.328 232.771 106.388 243.5 110.421 253.254C114.453 263.008 121.279 271.352 130.04 277.239C138.801 283.126 149.106 286.292 159.661 286.339C166.677 286.355 173.626 284.977 180.105 282.284C186.584 279.591 192.463 275.638 197.401 270.654L226.414 241.641L255.426 212.628C260.478 207.704 264.49 201.816 267.225 195.314C269.96 188.811 271.362 181.825 271.348 174.77ZM180.89 254.024C178.12 256.8 174.829 259 171.206 260.497C167.583 261.995 163.699 262.761 159.779 262.752C153.875 262.724 148.111 260.952 143.211 257.658C138.31 254.365 134.493 249.697 132.237 244.24C129.982 238.784 129.389 232.783 130.533 226.991C131.677 221.199 134.507 215.874 138.668 211.685L159.425 191.046L201.647 233.267L180.89 254.024ZM247.76 174.77C247.728 182.679 244.595 190.259 239.033 195.881L218.276 216.638L175.936 174.299L196.693 153.542C200.889 149.374 206.225 146.541 212.028 145.401C217.831 144.261 223.842 144.863 229.303 147.134C234.764 149.404 239.431 153.24 242.716 158.158C246 163.076 247.755 168.856 247.76 174.77Z" fill="#183C38"/>
</g>
<defs>
<clipPath id="clip0_2961_47">
<rect width="377" height="334" fill="white"/>
</clipPath>
</defs>
</svg>
